<?xml version="1.0" standalone="no"?>
<!DOCTYPE svg PUBLIC "-//W3C//DTD SVG 1.0//EN" "http://www.w3.org/TR/2001/REC-SVG-20010904/DTD/svg10.dtd">
<svg xmlns="http://www.w3.org/2000/svg" xmlns:xlink="http://www.w3.org/1999/xlink" id="body_1" width="51" height="38">

<g transform="matrix(0.04980469 0 0 0.04947917 0 0)">
	<g transform="matrix(1.500067 0 0 1.500067 128 0)">
	</g>
    <path transform="matrix(1.500067 0 0 1.500067 128 0)"  d="M511.954 458.634C 511.954 458.634 518.798 53.21802 298.649 53.34302C 127.896 53.43702 127.998 202.651 127.998 202.651C 127.998 202.651 201.308 115.138 276.556 190.37C 351.788 265.618 170.661 458.635 170.661 458.635L170.661 458.635L511.954 458.635L511.954 458.634z" stroke="none" fill="#5E9CEA" fill-rule="nonzero" />
	<g transform="matrix(1.500067 0 0 1.500067 128 0)">
	</g>
    <path transform="matrix(1.500067 0 0 1.500067 128 0)"  d="M298.649 53.342C 227.518 53.373 186.035 79.294 161.848 109.528C 187.058 89.388 223.791 74.701 277.321 74.67C 466.862 74.561 488.143 375.074 490.393 458.634L490.393 458.634L511.954 458.634C 511.954 458.634 518.798 53.217 298.649 53.342z" stroke="none" fill="#4B89DA" fill-rule="nonzero" />
	<g transform="matrix(1.500067 0 0 1.500067 128 0)">
	</g>
    <path transform="matrix(1.500067 0 0 1.500067 128 0)"  d="M21.259 351.981L21.259 447.978L149.068 447.978L149.068 351.981L85.312 298.639L21.259 351.981" stroke="none" fill="#46CEAD" fill-rule="nonzero" />
	<g transform="matrix(1.500067 0 0 1.500067 128 0)">
	</g>
    <path transform="matrix(1.500067 0 0 1.500067 128 0)"  d="M166.864 356.044L92.335 290.608C 88.155 286.952 81.929 287.139 77.976 290.921L77.976 290.921L3.642 356.044C -0.7869999 359.919 -1.24 366.637 2.634 371.074C 4.743 373.512 7.697 374.73 10.673 374.73C 13.157 374.73 15.665 373.855 17.689 372.105L17.689 372.105L85.312 312.826L152.81 372.105C 154.833 373.855 157.341 374.73 159.833 374.73C 162.801 374.73 165.754 373.511 167.863 371.105C 171.739 366.668 171.293 359.919 166.864 356.044z" stroke="none" fill="#646C77" fill-rule="nonzero" />
	<g transform="matrix(1.500067 0 0 1.500067 128 0)">
	</g>
    <path transform="matrix(1.500067 0 0 1.500067 128 0)"  d="M85.335 394.635C 79.445 394.635 74.671 399.416 74.671 405.291L74.671 405.291L74.671 442.415C 74.671 448.29 79.444 453.07 85.335 453.07C 91.226 453.07 96.007 448.29 96.007 442.415L96.007 442.415L96.007 405.291C 96.007 399.417 91.226 394.635 85.335 394.635z" stroke="none" fill="#424953" fill-rule="nonzero" />
	<g transform="matrix(1.500067 0 0 1.500067 128 0)">
	</g>
    <path transform="matrix(1.500067 0 0 1.500067 128 0)"  d="M149.068 458.634L21.259 458.634C 15.369 458.634 10.595 453.853 10.595 447.979C 10.595 442.073 15.368 437.292 21.259 437.292L21.259 437.292L149.068 437.292C 154.959 437.292 159.732 442.072 159.732 447.979C 159.732 453.852 154.958 458.634 149.068 458.634z" stroke="none" fill="#35BB9B" fill-rule="nonzero" />
</g>
</svg>